Coordinates
version=1
nRows=13
nColumns=22
inDegrees=yes

Units are S.I. units (second, meters, Newtons, ...)
If the header above contains a line with 'inDegrees', this indicates whether rotational values are in degrees (yes) or radians (no).

endheader
time	pelvis_tilt	pelvis_list	pelvis_rotation	pelvis_tx	pelvis_ty	pelvis_tz	hip_flexion_r	hip_adduction_r	hip_rotation_r	knee_angle_r	ankle_angle_r	subtalar_angle_r	hip_flexion_l	hip_adduction_l	hip_rotation_l	knee_angle_l	ankle_angle_l	subtalar_angle_l	lumbar_extension	lumbar_bending	lumbar_rotation
      3.66000000	      2.80985296	     -1.83059894	     -1.09263518	      1.01465357	      0.93100681	      0.07576857	     -3.35697361	      4.00045373	     -2.18508583	     -6.54873517	      1.99167955	     -0.15261588	      0.07352404	     -4.99034257	    -12.78817021	    -12.64043671	      5.17341330	      1.07666622	     -4.71231049	     -1.89029543	      0.65831025
      3.67000000	      2.71628162	     -1.71729622	     -0.98612340	      1.01632993	      0.93086097	      0.07460545	     -3.37413712	      3.81544684	     -2.31011188	     -6.54723984	      2.14803511	     -0.11654421	     -0.29991264	     -4.74093927	    -12.79372274	    -11.90909317	      5.09441806	      1.29785818	     -4.55968409	     -1.97254734	      0.64490396
      3.68000000	      2.63384155	     -1.63645944	     -0.89259806	      1.01793775	      0.93067629	      0.07346929	     -3.38664379	      3.66561990	     -2.41234304	     -6.56886655	      2.30311777	     -0.09106743	     -0.67818683	     -4.52038470	    -12.79087669	    -11.18998639	      5.04191277	      1.46225359	     -4.43126306	     -2.01206737	      0.64341894
      3.69000000	      2.57192953	     -1.57581942	     -0.80249024	      1.01949126	      0.93048042	      0.07236630	     -3.40823109	      3.53961218	     -2.50070865	     -6.61139774	      2.46586306	     -0.07412518	     -1.07171875	     -4.31747901	    -12.77788557	    -10.47925762	      4.99524516	      1.56597020	     -4.33557729	     -2.02868134	      0.64139352
      3.70000000	      2.53730274	     -1.52426127	     -0.70956089	      1.02098605	      0.93029709	      0.07127831	     -3.44628616	      3.42504678	     -2.58271989	     -6.67204772	      2.63622367	     -0.06449271	     -1.49051055	     -4.11982917	    -12.75096812	     -9.76820790	      4.94117937	      1.61588865	     -4.28214395	     -2.03277820	      0.63103032
      3.71000000	      2.53223361	     -1.47596369	     -0.60898401	      1.02242694	      0.93014635	      0.07020100	     -3.50380279	      3.31660370	     -2.66967450	     -6.75073704	      2.81169236	     -0.06294908	     -1.93402038	     -3.92361330	    -12.70245081	     -9.06113299	      4.87334809	      1.62221171	     -4.27190604	     -2.03327798	      0.61355320
      3.72000000	      2.55128100	     -1.42730676	     -0.49442080	      1.02381365	      0.93002722	      0.06913281	     -3.57486322	      3.21134136	     -2.76842033	     -6.84883260	      2.99083093	     -0.07242949	     -2.38964472	     -3.72979995	    -12.63301692	     -8.36908991	      4.79109546	      1.59902100	     -4.29709537	     -2.03766628	      0.57838245
      3.73000000	      2.58208826	     -1.37799958	     -0.36707528	      1.02511743	      0.92992650	      0.06806649	     -3.64156668	      3.10832294	     -2.88537113	     -6.97025923	      3.17327616	     -0.09709746	     -2.83301913	     -3.54157231	    -12.53194459	     -7.71031394	      4.70416521	      1.56215715	     -4.35030610	     -2.04149652	      0.52838692
      3.74000000	      2.61495799	     -1.32935530	     -0.22076017	      1.02635111	      0.92983583	      0.06701576	     -3.69603426	      3.01153203	     -3.02228785	     -7.11268118	      3.35385399	     -0.13992201	     -3.23386433	     -3.36814939	    -12.40478051	     -7.12427343	      4.62495777	      1.52514809	     -4.41314115	     -2.04989594	      0.45981453
      3.75000000	      2.64893451	     -1.27566972	     -0.05225586	      1.02752205	      0.92975829	      0.06597874	     -3.74429729	      2.91558420	     -3.18314745	     -7.26361663	      3.53142504	     -0.20526219	     -3.57728098	     -3.20742214	    -12.25358251	     -6.63777330	      4.55429005	      1.49276900	     -4.48289775	     -2.06974754	      0.36640312
      3.76000000	      2.66904931	     -1.21903911	      0.13292308	      1.02860468	      0.92967594	      0.06494829	     -3.76327619	      2.82053702	     -3.36093902	     -7.43257322	      3.70806434	     -0.28807761	     -3.83743571	     -3.06255033	    -12.06495501	     -6.26877446	      4.50631302	      1.47027115	     -4.54617680	     -2.09554077	      0.25591590
      3.77000000	      2.67321999	     -1.15890209	      0.33483131	      1.02963030	      0.92959061	      0.06393612	     -3.76091904	      2.72634014	     -3.55468536	     -7.60425935	      3.87442981	     -0.38695032	     -4.00818091	     -2.93486340	    -11.85362106	     -6.02858790	      4.48436883	      1.45464611	     -4.59388699	     -2.13046782	      0.12690382
      3.78000000	      2.65823080	     -1.09554976	      0.54533678	      1.03059199	      0.92949975	      0.06292607	     -3.73606003	      2.63000580	     -3.75982475	     -7.77342630	      4.03098210	     -0.49617932	     -4.08796769	     -2.82007443	    -11.61781264	     -5.91382912	      4.48875547	      1.44281068	     -4.62334344	     -2.16813428	     -0.01389050
